#!OML:ASF H:\LiuWeirdWalks\Patient Classification 1\Patient 1\Session 1\male.ASF
:FULLY-SPECIFIED
:DEGREES
208
root 1.55214 17.6746 -31.2879 2.11343 6.13648 -3.06672
lowerback 10.7166 2.40124 -2.519
upperback -0.0847731 2.88207 0.0551398
thorax -6.23213 1.49211 1.01429
lowerneck -17.6418 -1.20296 13.3301
upperneck 19.2445 -3.99302 -5.96609
head 8.52627 -1.54764 -4.71315
rclavicle 8.99501e-015 8.74653e-015
rhumerus -38.8037 -16.8195 -76.6199
rradius 34.5951
rwrist -7.56874
rhand -15.4133 -4.20657
rfingers 7.12502
rthumb 10.7661 -33.9107
lclavicle 8.99501e-015 8.74653e-015
lhumerus -35.1275 -10.4166 84.435
lradius 31.4304
lwrist 6.46778
lhand -13.4366 -3.4021
lfingers 7.12502
lthumb 12.6724 26.1934
rfemur -26.1089 -10.4585 17.3437
rtibia 71.5525
rfoot 9.64355 -13.1337
rtoes -0.7455
lfemur -11.2635 0.857716 -23.5207
ltibia 31.8493
lfoot -16.6498 13.3093
ltoes -8.00937
209
root 1.55399 17.6714 -31.2731 2.15185 6.0902 -3.05458
lowerback 10.7112 2.31547 -2.64217
upperback -0.0929977 2.7589 0.153535
thorax -6.24392 1.43738 1.20667
lowerneck -17.4616 -1.02817 13.358
upperneck 19.113 -3.68863 -6.16809
head 8.47496 -1.4283 -4.74625
rclavicle -1.63003e-014 4.77083e-015
rhumerus -38.7362 -16.4113 -76.6415
rradius 34.5322
rwrist -7.58312
rhand -15.4172 -4.21727
rfingers 7.12502
rthumb 10.7623 -33.9216
lclavicle -1.63003e-014 4.77083e-015
lhumerus -35.2953 -10.052 84.5277
lradius 31.658
lwrist 6.468
lhand -13.4035 -3.41061
lfingers 7.12502
lthumb 12.7043 26.1829
rfemur -26.0815 -10.4913 17.3313
rtibia 71.5554
rfoot 9.60928 -13.1415
rtoes -0.876041
lfemur -11.2379 0.798424 -23.5438
ltibia 31.8516
lfoot -16.7182 13.4139
ltoes -7.96924
210
root 1.55701 17.6677 -31.2578 2.19789 6.0147 -3.03118
lowerback 10.6971 2.24428 -2.75547
upperback -0.109823 2.65563 0.237205
thorax -6.2587 1.39202 1.37506
lowerneck -17.2686 -0.874231 13.3901
upperneck 18.9925 -3.41158 -6.37611
head 8.42279 -1.32113 -4.78541
rclavicle -1.96797e-014 -1.23246e-014
rhumerus -38.695 -16.0264 -76.656
rradius 34.4754
rwrist -7.59665
rhand -15.4197 -4.21783
rfingers 7.12502
rthumb 10.7599 -33.9223
lclavicle -1.96797e-014 -1.23246e-014
lhumerus -35.4858 -9.7192 84.6268
lradius 31.8966
lwrist 6.45671
lhand -13.3758 -3.44694
lfingers 7.12502
lthumb 12.7309 26.145
rfemur -26.063 -10.5143 17.2993
rtibia 71.5602
rfoot 9.57034 -13.1387
rtoes -1.05339
lfemur -11.2184 0.742791 -23.5879
ltibia 31.8605
lfoot -16.7915 13.5456
ltoes -7.95129
211
root 1.56004 17.6638 -31.2426 2.26009 5.94601 -2.99875
lowerback 10.7283 2.34749 -2.68013
upperback -0.149243 2.79214 0.0998806
thorax -6.31373 1.45498 1.16419
lowerneck -17.1461 -1.02282 13.427
upperneck 18.9 -3.63205 -6.26223
head 8.34839 -1.4133 -4.76849
rclavicle 7.40473e-015 2.42517e-014
rhumerus -38.8804 -16.3888 -76.6405
rradius 34.4855
rwrist -7.56067
rhand -15.4136 -4.20618
rfingers 7.12502
rthumb 10.7658 -33.9103
lclavicle 7.40473e-015 2.42517e-014
lhumerus -35.5595 -10.2285 84.708
lradius 32.1244
lwrist 6.59003
lhand -13.3239 -3.41057
lfingers 7.12502
lthumb 12.781 26.1782
rfemur -26.0632 -10.552 17.2607
rtibia 71.5703
rfoot 9.51527 -13.1476
rtoes -1.20089
lfemur -11.2254 0.679388 -23.6435
ltibia 31.8853
lfoot -16.8747 13.6813
ltoes -7.93633
212
root 1.56229 17.6598 -31.2287 2.34665 5.89715 -2.98062
lowerback 10.8119 2.60108 -2.42021
upperback -0.209101 3.13771 -0.229588
thorax -6.40592 1.6112 0.610896
lowerneck -17.0913 -1.45162 13.4596
upperneck 18.8162 -4.30994 -5.84685
head 8.25068 -1.69043 -4.69502
rclavicle 2.99171e-014 -1.27222e-014
rhumerus -39.2444 -17.4331 -76.5976
rradius 34.544
rwrist -7.47
rhand -15.396 -4.17101
rfingers 7.12502
rthumb 10.7828 -33.8742
lclavicle 2.99171e-014 -1.27222e-014
lhumerus -35.504 -11.4924 84.7643
lradius 32.3313
lwrist 6.82812
lhand -13.2733 -3.36452
lfingers 7.12502
lthumb 12.8298 26.2212
rfemur -26.0986 -10.6018 17.2519
rtibia 71.5864
rfoot 9.43741 -13.1838
rtoes -1.33988
lfemur -11.2802 0.606734 -23.6797
ltibia 31.9308
lfoot -16.9686 13.8064
ltoes -7.87994
213
root 1.56428 17.6556 -31.2149 2.44536 5.86584 -2.979
lowerback 10.8774 2.77527 -2.23479
upperback -0.262295 3.37575 -0.455001
thorax -6.4821 1.71833 0.226644
lowerneck -17.0725 -1.74291 13.5052
upperneck 18.7583 -4.77141 -5.59663
head 8.18744 -1.88146 -4.65979
rclavicle -1.70955e-014 -1.51076e-014
rhumerus -39.5088 -18.136 -76.5659
rradius 34.6034
rwrist -7.42561
rhand -15.3657 -4.14861
rfingers 7.12502
rthumb 10.8121 -33.8503
lclavicle -1.70955e-014 -1.51076e-014
lhumerus -35.4572 -12.4097 84.8464
lradius 32.5141
lwrist 7.02224
lhand -13.2222 -3.33853
lfingers 7.12502
lthumb 12.879 26.2441
rfemur -26.1471 -10.6637 17.2697
rtibia 71.6031
rfoot 9.33995 -13.2369
rtoes -1.43896
lfemur -11.364 0.523357 -23.696
ltibia 31.9988
lfoot -17.0725 13.9298
ltoes -7.78916
